<svg width="286" height="53" viewBox="0 0 286 53" fill="none" xmlns="http://www.w3.org/2000/svg">
<title>Connect Wallet</title>
<rect x="0.5" y="0.5" width="285" height="52" stroke="white"/>
<path d="M92.6661 29.948C92.4501 30.272 92.1861 30.578 91.8741 30.866C91.5741 31.154 91.2201 31.406 90.8121 31.622C90.4161 31.838 89.9721 32.006 89.4801 32.126C89.0001 32.258 88.4721 32.324 87.8961 32.324C86.9361 32.324 86.0481 32.156 85.2321 31.82C84.4161 31.484 83.7141 31.022 83.1261 30.434C82.5381 29.834 82.0761 29.126 81.7401 28.31C81.4161 27.494 81.2541 26.6 81.2541 25.628C81.2541 24.656 81.4221 23.762 81.7581 22.946C82.0941 22.13 82.5561 21.428 83.1441 20.84C83.7441 20.24 84.4461 19.772 85.2501 19.436C86.0661 19.1 86.9481 18.932 87.8961 18.932C88.3641 18.932 88.8201 18.98 89.2641 19.076C89.7201 19.172 90.1461 19.31 90.5421 19.49C90.9381 19.658 91.2981 19.868 91.6221 20.12C91.9461 20.36 92.2161 20.636 92.4321 20.948L91.3521 21.74C91.2201 21.536 91.0401 21.332 90.8121 21.128C90.5961 20.924 90.3381 20.744 90.0381 20.588C89.7381 20.432 89.4081 20.306 89.0481 20.21C88.7001 20.114 88.3221 20.066 87.9141 20.066C87.0861 20.066 86.3421 20.216 85.6821 20.516C85.0341 20.816 84.4821 21.224 84.0261 21.74C83.5701 22.244 83.2221 22.832 82.9821 23.504C82.7421 24.176 82.6221 24.884 82.6221 25.628C82.6221 26.372 82.7421 27.08 82.9821 27.752C83.2341 28.424 83.5881 29.018 84.0441 29.534C84.5001 30.038 85.0521 30.44 85.7001 30.74C86.3601 31.04 87.0981 31.19 87.9141 31.19C88.6461 31.19 89.3421 31.04 90.0021 30.74C90.6621 30.44 91.2141 29.96 91.6581 29.3L92.6661 29.948ZM102.98 27.788C102.98 28.424 102.866 29.012 102.638 29.552C102.422 30.092 102.116 30.56 101.72 30.956C101.324 31.352 100.85 31.664 100.298 31.892C99.7462 32.108 99.1402 32.216 98.4802 32.216C97.8322 32.216 97.2322 32.108 96.6802 31.892C96.1282 31.664 95.6542 31.352 95.2582 30.956C94.8622 30.56 94.5502 30.092 94.3222 29.552C94.1062 29.012 93.9982 28.424 93.9982 27.788C93.9982 27.152 94.1062 26.564 94.3222 26.024C94.5502 25.484 94.8622 25.016 95.2582 24.62C95.6542 24.224 96.1282 23.918 96.6802 23.702C97.2322 23.474 97.8322 23.36 98.4802 23.36C99.1402 23.36 99.7462 23.474 100.298 23.702C100.85 23.918 101.324 24.224 101.72 24.62C102.116 25.016 102.422 25.484 102.638 26.024C102.866 26.564 102.98 27.152 102.98 27.788ZM101.684 27.788C101.684 27.32 101.606 26.882 101.45 26.474C101.306 26.054 101.096 25.694 100.82 25.394C100.544 25.082 100.208 24.836 99.8122 24.656C99.4162 24.476 98.9722 24.386 98.4802 24.386C97.9882 24.386 97.5442 24.476 97.1482 24.656C96.7642 24.836 96.4342 25.082 96.1582 25.394C95.8822 25.694 95.6662 26.054 95.5102 26.474C95.3662 26.882 95.2942 27.32 95.2942 27.788C95.2942 28.256 95.3662 28.7 95.5102 29.12C95.6662 29.528 95.8822 29.888 96.1582 30.2C96.4342 30.5 96.7642 30.74 97.1482 30.92C97.5442 31.088 97.9882 31.172 98.4802 31.172C98.9722 31.172 99.4162 31.088 99.8122 30.92C100.208 30.74 100.544 30.5 100.82 30.2C101.096 29.888 101.306 29.528 101.45 29.12C101.606 28.7 101.684 28.256 101.684 27.788ZM106.712 23.576C106.736 23.804 106.754 24.056 106.766 24.332C106.778 24.608 106.784 24.836 106.784 25.016H106.82C107.06 24.524 107.45 24.128 107.99 23.828C108.53 23.516 109.1 23.36 109.7 23.36C110.768 23.36 111.566 23.678 112.094 24.314C112.634 24.95 112.904 25.79 112.904 26.834V32H111.68V27.338C111.68 26.894 111.644 26.492 111.572 26.132C111.5 25.772 111.374 25.466 111.194 25.214C111.026 24.95 110.792 24.746 110.492 24.602C110.204 24.458 109.838 24.386 109.394 24.386C109.07 24.386 108.752 24.452 108.44 24.584C108.14 24.716 107.87 24.92 107.63 25.196C107.39 25.46 107.198 25.802 107.054 26.222C106.91 26.63 106.838 27.116 106.838 27.68V32H105.614V25.43C105.614 25.202 105.608 24.908 105.596 24.548C105.584 24.188 105.566 23.864 105.542 23.576H106.712ZM117.171 23.576C117.195 23.804 117.213 24.056 117.225 24.332C117.237 24.608 117.243 24.836 117.243 25.016H117.279C117.519 24.524 117.909 24.128 118.449 23.828C118.989 23.516 119.559 23.36 120.159 23.36C121.227 23.36 122.025 23.678 122.553 24.314C123.093 24.95 123.363 25.79 123.363 26.834V32H122.139V27.338C122.139 26.894 122.103 26.492 122.031 26.132C121.959 25.772 121.833 25.466 121.653 25.214C121.485 24.95 121.251 24.746 120.951 24.602C120.663 24.458 120.297 24.386 119.853 24.386C119.529 24.386 119.211 24.452 118.899 24.584C118.599 24.716 118.329 24.92 118.089 25.196C117.849 25.46 117.657 25.802 117.513 26.222C117.369 26.63 117.297 27.116 117.297 27.68V32H116.073V25.43C116.073 25.202 116.067 24.908 116.055 24.548C116.043 24.188 116.025 23.864 116.001 23.576H117.171ZM132.958 27.14C132.922 26.348 132.664 25.694 132.184 25.178C131.716 24.65 131.044 24.386 130.168 24.386C129.76 24.386 129.382 24.464 129.034 24.62C128.686 24.764 128.38 24.968 128.116 25.232C127.852 25.484 127.642 25.778 127.486 26.114C127.33 26.438 127.24 26.78 127.216 27.14H132.958ZM134.2 27.536C134.2 27.62 134.2 27.71 134.2 27.806C134.2 27.902 134.194 28.004 134.182 28.112H127.198C127.21 28.532 127.294 28.928 127.45 29.3C127.606 29.672 127.822 29.996 128.098 30.272C128.374 30.548 128.698 30.77 129.07 30.938C129.442 31.094 129.844 31.172 130.276 31.172C130.912 31.172 131.458 31.028 131.914 30.74C132.382 30.44 132.736 30.098 132.976 29.714L133.894 30.434C133.39 31.07 132.832 31.526 132.22 31.802C131.62 32.078 130.972 32.216 130.276 32.216C129.652 32.216 129.07 32.108 128.53 31.892C128.002 31.664 127.546 31.352 127.162 30.956C126.778 30.56 126.472 30.092 126.244 29.552C126.028 29.012 125.92 28.424 125.92 27.788C125.92 27.152 126.028 26.564 126.244 26.024C126.46 25.484 126.76 25.016 127.144 24.62C127.528 24.224 127.978 23.918 128.494 23.702C129.01 23.474 129.568 23.36 130.168 23.36C130.828 23.36 131.41 23.474 131.914 23.702C132.418 23.918 132.838 24.218 133.174 24.602C133.51 24.974 133.762 25.412 133.93 25.916C134.11 26.42 134.2 26.96 134.2 27.536ZM142.899 25.502C142.695 25.178 142.395 24.914 141.999 24.71C141.615 24.494 141.195 24.386 140.739 24.386C140.247 24.386 139.803 24.476 139.407 24.656C139.011 24.824 138.669 25.064 138.381 25.376C138.105 25.676 137.889 26.036 137.733 26.456C137.589 26.864 137.517 27.308 137.517 27.788C137.517 28.268 137.589 28.712 137.733 29.12C137.889 29.528 138.105 29.888 138.381 30.2C138.657 30.5 138.993 30.74 139.389 30.92C139.785 31.088 140.229 31.172 140.721 31.172C141.261 31.172 141.717 31.07 142.089 30.866C142.461 30.662 142.767 30.398 143.007 30.074L143.925 30.758C143.565 31.202 143.121 31.556 142.593 31.82C142.077 32.084 141.453 32.216 140.721 32.216C140.037 32.216 139.419 32.108 138.867 31.892C138.315 31.664 137.841 31.352 137.445 30.956C137.061 30.56 136.761 30.092 136.545 29.552C136.329 29.012 136.221 28.424 136.221 27.788C136.221 27.152 136.329 26.564 136.545 26.024C136.761 25.484 137.061 25.016 137.445 24.62C137.841 24.224 138.315 23.918 138.867 23.702C139.419 23.474 140.037 23.36 140.721 23.36C141.285 23.36 141.855 23.486 142.431 23.738C143.019 23.978 143.493 24.338 143.853 24.818L142.899 25.502ZM149.631 24.602H147.255V29.516C147.255 29.828 147.285 30.086 147.345 30.29C147.405 30.494 147.489 30.656 147.597 30.776C147.717 30.884 147.855 30.962 148.011 31.01C148.167 31.046 148.335 31.064 148.515 31.064C148.683 31.064 148.857 31.04 149.037 30.992C149.229 30.944 149.409 30.878 149.577 30.794L149.631 31.856C149.415 31.94 149.187 32 148.947 32.036C148.719 32.084 148.467 32.108 148.191 32.108C147.963 32.108 147.723 32.078 147.471 32.018C147.219 31.958 146.985 31.844 146.769 31.676C146.553 31.508 146.373 31.28 146.229 30.992C146.097 30.704 146.031 30.326 146.031 29.858V24.602H144.285V23.576H146.031V21.2H147.255V23.576H149.631V24.602ZM158.985 30.218H159.021L162.207 19.256H163.755L166.941 30.218H166.977L170.091 19.256H171.459L167.697 32H166.185L162.981 21.056H162.945L159.741 32H158.229L154.467 19.256H155.835L158.985 30.218ZM177.985 26.564C177.985 25.832 177.793 25.286 177.409 24.926C177.025 24.566 176.467 24.386 175.735 24.386C175.231 24.386 174.763 24.476 174.331 24.656C173.899 24.836 173.533 25.076 173.233 25.376L172.549 24.566C172.897 24.218 173.353 23.93 173.917 23.702C174.493 23.474 175.141 23.36 175.861 23.36C176.317 23.36 176.743 23.426 177.139 23.558C177.535 23.678 177.883 23.864 178.183 24.116C178.483 24.368 178.717 24.686 178.885 25.07C179.053 25.454 179.137 25.904 179.137 26.42V30.11C179.137 30.434 179.149 30.77 179.173 31.118C179.197 31.466 179.233 31.76 179.281 32H178.183C178.147 31.796 178.117 31.574 178.093 31.334C178.069 31.094 178.057 30.86 178.057 30.632H178.021C177.637 31.196 177.199 31.604 176.707 31.856C176.227 32.096 175.645 32.216 174.961 32.216C174.637 32.216 174.301 32.168 173.953 32.072C173.617 31.988 173.305 31.844 173.017 31.64C172.741 31.436 172.507 31.172 172.315 30.848C172.135 30.524 172.045 30.128 172.045 29.66C172.045 29.012 172.207 28.502 172.531 28.13C172.867 27.746 173.311 27.464 173.863 27.284C174.415 27.092 175.045 26.972 175.753 26.924C176.473 26.864 177.217 26.834 177.985 26.834V26.564ZM177.625 27.788C177.121 27.788 176.611 27.812 176.095 27.86C175.591 27.896 175.129 27.98 174.709 28.112C174.301 28.232 173.965 28.412 173.701 28.652C173.437 28.892 173.305 29.21 173.305 29.606C173.305 29.906 173.359 30.158 173.467 30.362C173.587 30.566 173.743 30.734 173.935 30.866C174.127 30.986 174.337 31.076 174.565 31.136C174.805 31.184 175.045 31.208 175.285 31.208C175.717 31.208 176.101 31.136 176.437 30.992C176.773 30.836 177.055 30.632 177.283 30.38C177.511 30.116 177.685 29.816 177.805 29.48C177.925 29.144 177.985 28.79 177.985 28.418V27.788H177.625ZM183.55 32H182.326V18.392H183.55V32ZM188.085 32H186.861V18.392H188.085V32ZM197.786 27.14C197.75 26.348 197.492 25.694 197.012 25.178C196.544 24.65 195.872 24.386 194.996 24.386C194.588 24.386 194.21 24.464 193.862 24.62C193.514 24.764 193.208 24.968 192.944 25.232C192.68 25.484 192.47 25.778 192.314 26.114C192.158 26.438 192.068 26.78 192.044 27.14H197.786ZM199.028 27.536C199.028 27.62 199.028 27.71 199.028 27.806C199.028 27.902 199.022 28.004 199.01 28.112H192.026C192.038 28.532 192.122 28.928 192.278 29.3C192.434 29.672 192.65 29.996 192.926 30.272C193.202 30.548 193.526 30.77 193.898 30.938C194.27 31.094 194.672 31.172 195.104 31.172C195.74 31.172 196.286 31.028 196.742 30.74C197.21 30.44 197.564 30.098 197.804 29.714L198.722 30.434C198.218 31.07 197.66 31.526 197.048 31.802C196.448 32.078 195.8 32.216 195.104 32.216C194.48 32.216 193.898 32.108 193.358 31.892C192.83 31.664 192.374 31.352 191.99 30.956C191.606 30.56 191.3 30.092 191.072 29.552C190.856 29.012 190.748 28.424 190.748 27.788C190.748 27.152 190.856 26.564 191.072 26.024C191.288 25.484 191.588 25.016 191.972 24.62C192.356 24.224 192.806 23.918 193.322 23.702C193.838 23.474 194.396 23.36 194.996 23.36C195.656 23.36 196.238 23.474 196.742 23.702C197.246 23.918 197.666 24.218 198.002 24.602C198.338 24.974 198.59 25.412 198.758 25.916C198.938 26.42 199.028 26.96 199.028 27.536ZM205.459 24.602H203.083V29.516C203.083 29.828 203.113 30.086 203.173 30.29C203.233 30.494 203.317 30.656 203.425 30.776C203.545 30.884 203.683 30.962 203.839 31.01C203.995 31.046 204.163 31.064 204.343 31.064C204.511 31.064 204.685 31.04 204.865 30.992C205.057 30.944 205.237 30.878 205.405 30.794L205.459 31.856C205.243 31.94 205.015 32 204.775 32.036C204.547 32.084 204.295 32.108 204.019 32.108C203.791 32.108 203.551 32.078 203.299 32.018C203.047 31.958 202.813 31.844 202.597 31.676C202.381 31.508 202.201 31.28 202.057 30.992C201.925 30.704 201.859 30.326 201.859 29.858V24.602H200.113V23.576H201.859V21.2H203.083V23.576H205.459V24.602Z" fill="white"/>
</svg>
