<?xml version="1.0" encoding="utf-8"?>
<!-- Generator: Adobe Illustrator 25.2.0, SVG Export Plug-In . SVG Version: 6.00 Build 0)  -->
<svg version="1.1" id="Layer_1" xmlns="http://www.w3.org/2000/svg" xmlns:xlink="http://www.w3.org/1999/xlink" x="0px" y="0px"
	 viewBox="0 0 1000 600" style="enable-background:new 0 0 1000 600;" xml:space="preserve">
<style type="text/css">
	.st0{fill:#FFFFFF;}
	.st1{fill:#231F20;}
	.st2{fill:#F79420;}
	.st3{fill:#808184;}
</style>
<g>
	<path class="st1" d="M185.69,442.57v-17.85c0-4.79-3.92-8.71-8.71-8.71H57.9c-4.79,0-8.71,3.92-8.71,8.71v17.85H185.69z"/>
	<path class="st1" d="M325.13,186.64h42.73l-11.73,79.04c11.73-14.8,23.46-20.67,39.1-19.55c24.58,1.68,38.26,21.51,36.87,52.79
		c-2.23,49.44-35.75,84.07-81.27,84.07c-17.04,0-32.68-3.07-53.35-10.61L325.13,186.64z M343.85,347.52
		c6.7,1.4,10.33,1.4,15.08,0.84c11.45-1.68,18.71-7.54,24.02-19.27c3.07-6.98,5.03-15.36,5.59-23.74
		c0.84-14.24-4.75-22.34-14.8-21.78c-7.82,0.28-15.08,6.42-23.18,19.27L343.85,347.52z"/>
	<path class="st1" d="M482.36,378.8h-42.73l19.27-129.31h42.73L482.36,378.8z M509.45,213.46c0,15.36-10.89,26.25-25.97,26.25
		c-13.68,0-22.06-8.66-22.06-22.9c0-13.97,11.45-25.14,25.97-25.14C500.24,191.67,509.45,200.61,509.45,213.46z"/>
	<path class="st1" d="M637.92,379.91c-10.61,1.96-16.2,2.23-22.9,1.96c-8.38-0.28-16.2-4.19-20.95-9.77
		c-3.07-3.63-4.19-7.54-4.19-14.8c-12.85,18.99-23.74,25.69-41.34,25.69c-26.53,0-42.17-22.9-39.38-56.7
		c4.19-47.48,39.66-82.67,81.55-80.72c2.51,0,6.42,0.56,11.45,1.12l8.94-60.05h42.73l-20.39,136.02l-1.4,11.73
		c-2.23,15.08,1.12,20.11,13.69,19.27L637.92,379.91z M597.14,281.04c-1.95-0.56-3.35-0.84-4.19-0.84
		c-8.66-1.4-18.15,1.12-24.02,5.59c-8.38,6.98-14.8,21.23-16.2,35.75c-1.4,14.52,3.63,22.9,13.69,23.46
		c7.82,0.56,14.24-4.75,24.02-18.99L597.14,281.04z"/>
	<path class="st1" d="M699.35,378.8h-42.73l19.27-129.31h42.73L699.35,378.8z M726.44,213.46c0,15.36-10.89,26.25-25.97,26.25
		c-13.68,0-22.06-8.66-22.06-22.9c0-13.97,11.45-25.14,25.97-25.14C717.23,191.67,726.44,200.61,726.44,213.46z"/>
	<path class="st1" d="M820,280.76h-27.09l-12.01,79.88c-4.19,27.93-9.5,44.69-18.71,58.37c-11.73,17.32-31.84,25.42-58.09,23.18
		c-1.4,0-3.35-0.28-5.58-0.56l-1.68-27.37h5.31c9.5,0,19.55-4.75,24.3-11.73c5.03-7.54,8.1-17.04,10.61-34.91l13.13-86.86h-22.34
		l4.75-31.28h22.34l1.12-6.98c5.31-36.03,23.18-55.02,54.46-58.09c9.5-0.84,17.04-0.28,29.33,2.51l-6.98,29.32
		c-1.96,0-3.35-0.28-4.47-0.28c-11.73-0.84-20.39,2.79-25.42,10.06c-3.07,4.47-4.47,8.94-6.98,23.46h28.77L820,280.76z"/>
	<path class="st1" d="M925.84,248.92l-30.54,72.07l-15.81-72.07h-43l29.2,122.34c-5.03,10.33-7.26,14.52-11.17,20.39
		c-8.66,13.13-20.11,20.11-32.68,20.11c-4.19,0-6.98-0.28-12.85-1.4l4.75,31.28c2.79,0.56,4.75,0.84,6.14,0.84
		c27.37,2.79,46.36-6.7,67.03-33.52c9.22-12.01,15.36-22.62,31.28-54.18l53.88-105.86H925.84z"/>
	<g>
		<g>
			<path class="st0" d="M65.8,236.74c1.08,6.41,7.21,10.77,13.62,9.69l65.71-11.08c6.41-1.08,10.77-7.21,9.69-13.62l-0.48-2.82
				c-1.08-6.41-7.21-10.77-13.62-9.69L75.01,220.3c-6.41,1.08-10.77,7.21-9.69,13.62L65.8,236.74z"/>
			<path class="st0" d="M92.94,284.23c4.18,24.8-2.89,34.19-2.89,34.19l65.99-11.13c0,0-7.55-9.66-10.99-30.03
				c-3.44-20.37,0.01-35.07,0.01-35.07l-65.99,11.13C79.07,253.32,88.76,259.43,92.94,284.23z"/>
			<path class="st0" d="M82.95,338.44l0.48,2.82c1.08,6.41,7.21,10.77,13.62,9.69l65.71-11.08c6.41-1.08,10.77-7.21,9.69-13.62
				l-0.48-2.82c-1.08-6.41-7.21-10.77-13.62-9.69l-65.71,11.08C86.23,325.9,81.87,332.03,82.95,338.44z"/>
			<path class="st0" d="M85.39,293.45l-2.14-12.72c-1.21-7.19-8.08-12.07-15.27-10.86l-40.06,4.89v41.83l46.61-7.87
				C81.71,307.51,86.6,300.64,85.39,293.45z"/>
		</g>
		<g>
			<path class="st1" d="M186.94,271.53c17.14-9.6,31.53-24.68,31.53-51.75v-0.69c0-37.7-30.16-62.03-79.17-62.03H27.91v117.71
				l40.06-4.89c7.19-1.21,14.06,3.68,15.27,10.86l2.14,12.72c1.21,7.19-3.68,14.06-10.86,15.27l-46.61,7.87v80.38h114.13
				c54.15,0,89.8-21.93,89.8-65.8v-0.69C231.84,298.26,214.7,282.15,186.94,271.53z M65.8,236.74l-0.48-2.82
				c-1.08-6.41,3.28-12.54,9.69-13.62l65.71-11.08c6.41-1.08,12.54,3.28,13.62,9.69l0.48,2.82c1.08,6.41-3.28,12.54-9.69,13.62
				l-65.71,11.08C73.01,247.51,66.88,243.15,65.8,236.74z M79.07,253.32l65.99-11.13c0,0-3.44,14.7-0.01,35.07
				s10.99,30.03,10.99,30.03l-65.99,11.13c0,0,7.07-9.39,2.89-34.19C88.76,259.43,79.07,253.32,79.07,253.32z M162.76,339.87
				l-65.71,11.08c-6.41,1.08-12.54-3.28-13.62-9.69l-0.48-2.82c-1.08-6.41,3.28-12.54,9.69-13.62l65.71-11.08
				c6.41-1.08,12.54,3.28,13.62,9.69l0.48,2.82C173.53,332.66,169.17,338.79,162.76,339.87z"/>
		</g>
	</g>
</g>
</svg>
