<?xml version="1.0" encoding="utf-8"?>
<!-- Generator: Adobe Illustrator 25.2.0, SVG Export Plug-In . SVG Version: 6.00 Build 0)  -->
<svg version="1.1" id="Layer_1" xmlns="http://www.w3.org/2000/svg" xmlns:xlink="http://www.w3.org/1999/xlink" x="0px" y="0px"
	 viewBox="0 0 1000 300" style="enable-background:new 0 0 1000 300;" xml:space="preserve">
<style type="text/css">
	.st0{fill:#FFFFFF;}
	.st1{fill:#231F20;}
	.st2{fill:#F79420;}
	.st3{fill:#808184;}
</style>
<g>
	<path class="st0" d="M176.16,93.87h21.16l-5.81,39.14c5.81-7.33,11.62-10.23,19.36-9.68c12.17,0.83,18.95,10.65,18.25,26.14
		c-1.11,24.48-17.7,41.63-40.24,41.63c-8.44,0-16.18-1.52-26.41-5.25L176.16,93.87z M185.43,173.53c3.32,0.69,5.12,0.69,7.47,0.42
		c5.67-0.83,9.27-3.73,11.89-9.54c1.52-3.46,2.49-7.61,2.77-11.75c0.41-7.05-2.35-11.06-7.33-10.79c-3.87,0.14-7.47,3.18-11.48,9.54
		L185.43,173.53z"/>
	<path class="st0" d="M254.01,189.02h-21.16l9.54-64.03h21.16L254.01,189.02z M267.42,107.15c0,7.61-5.39,13-12.86,13
		c-6.78,0-10.92-4.29-10.92-11.34c0-6.91,5.67-12.45,12.86-12.45C262.86,96.36,267.42,100.79,267.42,107.15z"/>
	<path class="st0" d="M331.03,189.57c-5.25,0.97-8.02,1.11-11.34,0.97c-4.15-0.14-8.02-2.07-10.37-4.84
		c-1.52-1.8-2.07-3.73-2.07-7.33c-6.36,9.4-11.75,12.72-20.47,12.72c-13.14,0-20.88-11.34-19.5-28.07
		c2.07-23.51,19.64-40.93,40.38-39.97c1.24,0,3.18,0.28,5.67,0.55l4.43-29.73h21.16l-10.09,67.35l-0.69,5.81
		c-1.11,7.47,0.55,9.96,6.78,9.54L331.03,189.57z M310.84,140.61c-0.97-0.28-1.66-0.41-2.07-0.41c-4.29-0.69-8.99,0.55-11.89,2.77
		c-4.15,3.46-7.33,10.51-8.02,17.7c-0.69,7.19,1.8,11.34,6.78,11.62c3.87,0.28,7.05-2.35,11.89-9.4L310.84,140.61z"/>
	<path class="st0" d="M361.45,189.02h-21.16l9.54-64.03h21.16L361.45,189.02z M374.86,107.15c0,7.61-5.39,13-12.86,13
		c-6.78,0-10.92-4.29-10.92-11.34c0-6.91,5.67-12.45,12.86-12.45C370.3,96.36,374.86,100.79,374.86,107.15z"/>
	<path class="st0" d="M421.19,140.48h-13.41l-5.95,39.55c-2.07,13.83-4.7,22.13-9.27,28.9c-5.81,8.57-15.77,12.58-28.76,11.48
		c-0.69,0-1.66-0.14-2.77-0.28l-0.83-13.55h2.63c4.7,0,9.68-2.35,12.03-5.81c2.49-3.73,4.01-8.44,5.26-17.29l6.5-43.01h-11.06
		l2.35-15.49h11.06l0.55-3.46c2.63-17.84,11.48-27.24,26.97-28.76c4.7-0.42,8.44-0.14,14.52,1.24l-3.46,14.52
		c-0.97,0-1.66-0.14-2.21-0.14c-5.81-0.41-10.1,1.38-12.58,4.98c-1.52,2.21-2.21,4.43-3.46,11.62h14.24L421.19,140.48z"/>
	<path class="st0" d="M473.59,124.71l-15.12,35.68l-7.83-35.68h-21.29l14.46,60.57c-2.49,5.12-3.6,7.19-5.53,10.1
		c-4.29,6.5-9.96,9.96-16.18,9.96c-2.07,0-3.46-0.14-6.36-0.69l2.35,15.49c1.38,0.28,2.35,0.41,3.04,0.41
		c13.55,1.38,22.96-3.32,33.19-16.59c4.56-5.95,7.61-11.2,15.49-26.83l26.68-52.42H473.59z"/>
	<g>
		<path class="st0" d="M452.63,109.14l2.09-13.72h5.8l-3.63,23.73l-3.89,0.81l-9.83-13.9l-2.06,13.42h-5.79l3.63-23.62l3.78-0.81
			L452.63,109.14z"/>
		<path class="st0" d="M469.61,105.8h6.9l-0.73,4.88h-6.9l-1.32,8.8h-6.13l3.6-24.06h13.94l-0.74,5.1h-7.85L469.61,105.8z"/>
		<path class="st0" d="M490.67,119.48h-6.12l2.82-18.96h-6.46l0.77-5.1h19.04l-0.77,5.1h-6.42L490.67,119.48z"/>
	</g>
	<g>
		<path class="st0" d="M523.76,175.66h-20.73l-4.54,9.15h-2.81l16.44-32.52h2.6l16.44,32.52h-2.81L523.76,175.66z M522.79,173.67
			l-9.39-18.77l-9.34,18.77H522.79z"/>
		<path class="st0" d="M540.53,181.47c-2.5-2.39-3.75-5.87-3.75-10.45v-18.72h2.6v18.63c0,4,1.01,6.99,3.01,8.97
			c2.01,1.98,4.92,2.97,8.73,2.97c3.78,0,6.67-0.99,8.68-2.97c2.01-1.98,3.01-4.97,3.01-8.97v-18.63h2.6v18.72
			c0,4.58-1.26,8.07-3.78,10.45c-2.52,2.38-6.04,3.58-10.57,3.58C546.55,185.05,543.04,183.86,540.53,181.47z"/>
		<path class="st0" d="M583.42,182.91c-2.81-1.43-5.02-3.39-6.64-5.9c-1.62-2.51-2.43-5.33-2.43-8.46c0-3.13,0.81-5.95,2.43-8.46
			c1.62-2.51,3.83-4.48,6.64-5.9c2.81-1.42,5.97-2.14,9.47-2.14c2.59,0,4.97,0.38,7.15,1.14c2.18,0.76,4.03,1.88,5.56,3.37
			l-1.63,1.53c-2.86-2.57-6.52-3.86-10.98-3.86c-2.99,0-5.72,0.62-8.17,1.86c-2.45,1.24-4.37,2.95-5.77,5.13
			c-1.4,2.18-2.09,4.62-2.09,7.32c0,2.69,0.7,5.13,2.09,7.32c1.39,2.18,3.32,3.9,5.77,5.13c2.45,1.24,5.17,1.86,8.17,1.86
			c4.43,0,8.08-1.3,10.98-3.9l1.63,1.53c-1.53,1.49-3.39,2.62-5.59,3.39c-2.2,0.77-4.57,1.16-7.12,1.16
			C589.39,185.05,586.23,184.34,583.42,182.91z"/>
		<path class="st0" d="M620.92,154.43h-12.87v-2.14h28.34v2.14h-12.87v30.39h-2.61V154.43z"/>
		<path class="st0" d="M643.03,152.29h2.6v32.52h-2.6V152.29z"/>
		<path class="st0" d="M663.96,182.89c-2.83-1.44-5.05-3.42-6.66-5.92c-1.62-2.51-2.43-5.31-2.43-8.41c0-3.1,0.81-5.9,2.43-8.41
			c1.62-2.51,3.84-4.48,6.66-5.92c2.83-1.44,5.99-2.16,9.5-2.16c3.5,0,6.67,0.71,9.5,2.14c2.82,1.43,5.05,3.39,6.66,5.9
			c1.62,2.51,2.43,5.33,2.43,8.46c0,3.13-0.81,5.95-2.43,8.46c-1.62,2.51-3.84,4.48-6.66,5.9c-2.83,1.42-5.99,2.14-9.5,2.14
			C669.95,185.05,666.79,184.33,663.96,182.89z M681.58,181.01c2.42-1.24,4.32-2.95,5.72-5.13c1.39-2.18,2.09-4.62,2.09-7.32
			c0-2.69-0.7-5.13-2.09-7.32c-1.4-2.18-3.3-3.89-5.72-5.13c-2.42-1.24-5.12-1.86-8.12-1.86c-3,0-5.71,0.62-8.14,1.86
			c-2.43,1.24-4.35,2.95-5.74,5.13c-1.4,2.18-2.09,4.62-2.09,7.32c0,2.69,0.7,5.13,2.09,7.32c1.39,2.18,3.31,3.9,5.74,5.13
			c2.43,1.24,5.15,1.86,8.14,1.86C676.46,182.87,679.16,182.25,681.58,181.01z"/>
		<path class="st0" d="M730.39,152.29v32.52h-2.14l-24.35-28.25v28.25h-2.6v-32.52h2.2l24.3,28.25v-28.25H730.39z"/>
		<path class="st0" d="M790.18,184.82l-0.05-27.83l-14.96,23.51h-1.28l-14.96-23.42v27.74h-2.55v-32.52h2.2l15.98,25.14l15.98-25.14
			h2.14l0.05,32.52H790.18z"/>
		<path class="st0" d="M827.5,175.66h-20.73l-4.54,9.15h-2.81l16.44-32.52h2.6l16.44,32.52h-2.81L827.5,175.66z M826.53,173.67
			l-9.39-18.77l-9.34,18.77H826.53z"/>
		<path class="st0" d="M866.4,184.82l-8.53-10.87c-1.26,0.16-2.42,0.23-3.47,0.23h-10.21v10.64h-2.6v-32.52h12.82
			c4.49,0,8.02,0.97,10.57,2.91c2.55,1.94,3.83,4.62,3.83,8.06c0,2.57-0.72,4.73-2.17,6.48c-1.45,1.75-3.51,2.98-6.2,3.69
			l8.93,11.38H866.4z M854.41,172.09c3.81,0,6.72-0.77,8.73-2.3c2.01-1.53,3.01-3.71,3.01-6.53c0-2.82-1.01-4.99-3.01-6.53
			c-2.01-1.53-4.92-2.3-8.73-2.3h-10.21v17.65H854.41z"/>
		<path class="st0" d="M889.17,168.79l-8.02,7.48v8.55h-2.6v-32.52h2.6v20.91l22.31-20.91h3.17l-15.73,14.78l16.8,17.75h-3.16
			L889.17,168.79z"/>
		<path class="st0" d="M939.31,182.68v2.14h-24.66v-32.52h23.89v2.14h-21.29v12.82h19.05v2.09h-19.05v13.34H939.31z"/>
		<path class="st0" d="M955.85,154.43h-12.87v-2.14h28.34v2.14h-12.87v30.39h-2.61V154.43z"/>
	</g>
	<path class="st0" d="M106.8,220.59v-8.84c0-2.37-1.94-4.31-4.31-4.31H43.52c-2.37,0-4.31,1.94-4.31,4.31v8.84H106.8z"/>
	<g>
		<g>
			<path class="st0" d="M107.42,135.9c8.48-4.75,15.61-12.22,15.61-25.62v-0.34c0-18.67-14.93-30.72-39.2-30.72H28.68v58.28
				l19.83-2.42c3.56-0.6,6.96,1.82,7.56,5.38l1.06,6.3c0.6,3.56-1.82,6.96-5.38,7.56l-23.08,3.9v39.8h56.51
				c26.81,0,44.46-10.86,44.46-32.58v-0.34C129.65,149.14,121.16,141.16,107.42,135.9z M47.44,118.68l-0.24-1.4
				c-0.54-3.17,1.62-6.21,4.8-6.74l32.54-5.49c3.17-0.54,6.21,1.62,6.74,4.8l0.24,1.4c0.54,3.17-1.62,6.21-4.8,6.74l-32.54,5.49
				C51.01,124.01,47.97,121.85,47.44,118.68z M54.01,126.89l32.67-5.51c0,0-1.7,7.28,0,17.37c1.7,10.09,5.44,14.87,5.44,14.87
				l-32.67,5.51c0,0,3.5-4.65,1.43-16.93C58.8,129.91,54.01,126.89,54.01,126.89z M95.44,169.74l-32.54,5.49
				c-3.17,0.54-6.21-1.62-6.74-4.8l-0.24-1.4c-0.54-3.17,1.62-6.21,4.8-6.74l32.54-5.49c3.17-0.54,6.21,1.62,6.74,4.8l0.24,1.4
				C100.78,166.17,98.62,169.2,95.44,169.74z"/>
		</g>
	</g>
</g>
</svg>
