<?xml version="1.0" encoding="utf-8"?>
<!-- Generator: Adobe Illustrator 25.2.0, SVG Export Plug-In . SVG Version: 6.00 Build 0)  -->
<svg version="1.1" id="Layer_1" xmlns="http://www.w3.org/2000/svg" xmlns:xlink="http://www.w3.org/1999/xlink" x="0px" y="0px"
	 viewBox="0 0 1000 1000" style="enable-background:new 0 0 1000 1000;" xml:space="preserve">
<style type="text/css">
	.st0{fill:#FFFFFF;}
	.st1{fill:#231F20;}
	.st2{fill:#F79420;}
	.st3{fill:#808184;}
</style>
<g>
	<path class="st0" d="M674.08,958.16V902.5c0-14.95-12.23-27.17-27.17-27.17H275.51c-14.95,0-27.17,12.23-27.17,27.17v55.66H674.08z
		"/>
	<g>
		<g>
			<path class="st0" d="M677.97,424.7c53.45-29.93,98.34-76.96,98.34-161.4v-2.14c0-117.58-94.07-193.48-246.92-193.48H182v367.1
				l124.94-15.25c22.41-3.78,43.84,11.46,47.62,33.88l6.69,39.66c3.78,22.41-11.46,43.84-33.88,47.62L182,565.24v250.68h355.94
				c168.9,0,280.06-68.41,280.06-205.23v-2.14C818,508.07,764.56,457.84,677.97,424.7z M300.16,316.2l-1.48-8.8
				c-3.37-19.99,10.23-39.11,30.22-42.48l204.95-34.57c19.99-3.37,39.11,10.23,42.48,30.22l1.48,8.8
				c3.37,19.99-10.23,39.11-30.22,42.48l-204.95,34.57C322.65,349.78,303.53,336.19,300.16,316.2z M341.56,367.9l205.82-34.71
				c0,0-10.74,45.85-0.02,109.39c10.72,63.54,34.27,93.66,34.27,93.66L375.8,570.96c0,0,22.05-29.29,9.01-106.64
				C371.76,386.96,341.56,367.9,341.56,367.9z M602.57,637.84L397.62,672.4c-19.99,3.37-39.11-10.23-42.48-30.22l-1.48-8.8
				c-3.37-19.99,10.23-39.11,30.22-42.48l204.95-34.57c19.99-3.37,39.11,10.23,42.48,30.22l1.48,8.8
				C636.16,615.35,622.56,634.47,602.57,637.84z"/>
		</g>
	</g>
</g>
</svg>
