<?xml version="1.0" encoding="utf-8"?>
<!-- Generator: Adobe Illustrator 25.2.0, SVG Export Plug-In . SVG Version: 6.00 Build 0)  -->
<svg version="1.1" id="Layer_1" xmlns="http://www.w3.org/2000/svg" xmlns:xlink="http://www.w3.org/1999/xlink" x="0px" y="0px"
	 viewBox="0 0 1000 600" style="enable-background:new 0 0 1000 600;" xml:space="preserve">
<style type="text/css">
	.st0{fill:#FFFFFF;}
	.st1{fill:#231F20;}
	.st2{fill:#F79420;}
	.st3{fill:#808184;}
</style>
<g>
	<path class="st2" d="M184.17,442.38v-17.85c0-4.79-3.92-8.71-8.71-8.71H56.38c-4.79,0-8.71,3.92-8.71,8.71v17.85H184.17z"/>
	<path class="st1" d="M323.61,186.45h42.73l-11.73,79.04c11.73-14.8,23.46-20.67,39.1-19.55c24.58,1.68,38.26,21.51,36.87,52.79
		c-2.23,49.44-35.75,84.07-81.27,84.07c-17.04,0-32.68-3.07-53.35-10.61L323.61,186.45z M342.32,347.32
		c6.7,1.4,10.33,1.4,15.08,0.84c11.45-1.68,18.71-7.54,24.02-19.27c3.07-6.98,5.03-15.36,5.59-23.74
		c0.84-14.24-4.75-22.34-14.8-21.78c-7.82,0.28-15.08,6.42-23.18,19.27L342.32,347.32z"/>
	<path class="st1" d="M480.84,378.6h-42.73l19.27-129.31h42.73L480.84,378.6z M507.93,213.26c0,15.36-10.89,26.25-25.97,26.25
		c-13.68,0-22.06-8.66-22.06-22.9c0-13.97,11.45-25.14,25.97-25.14C498.71,191.47,507.93,200.41,507.93,213.26z"/>
	<path class="st1" d="M636.4,379.72c-10.61,1.96-16.2,2.23-22.9,1.96c-8.38-0.28-16.2-4.19-20.95-9.77
		c-3.07-3.63-4.19-7.54-4.19-14.8c-12.85,18.99-23.74,25.69-41.34,25.69c-26.53,0-42.17-22.9-39.38-56.7
		c4.19-47.48,39.66-82.67,81.55-80.72c2.51,0,6.42,0.56,11.45,1.12l8.94-60.05h42.73l-20.39,136.02l-1.4,11.73
		c-2.23,15.08,1.12,20.11,13.69,19.27L636.4,379.72z M595.62,280.85c-1.95-0.56-3.35-0.84-4.19-0.84
		c-8.66-1.4-18.15,1.12-24.02,5.59c-8.38,6.98-14.8,21.23-16.2,35.75c-1.4,14.52,3.63,22.9,13.69,23.46
		c7.82,0.56,14.24-4.75,24.02-18.99L595.62,280.85z"/>
	<path class="st1" d="M697.83,378.6H655.1l19.27-129.31h42.73L697.83,378.6z M724.92,213.26c0,15.36-10.89,26.25-25.97,26.25
		c-13.68,0-22.06-8.66-22.06-22.9c0-13.97,11.45-25.14,25.97-25.14C715.7,191.47,724.92,200.41,724.92,213.26z"/>
	<path class="st1" d="M818.48,280.57h-27.09l-12.01,79.88c-4.19,27.93-9.5,44.69-18.71,58.37c-11.73,17.32-31.84,25.42-58.09,23.18
		c-1.4,0-3.35-0.28-5.58-0.56l-1.68-27.37h5.31c9.5,0,19.55-4.75,24.3-11.73c5.03-7.54,8.1-17.04,10.61-34.91l13.13-86.86h-22.34
		l4.75-31.28h22.34l1.12-6.98c5.31-36.03,23.18-55.02,54.46-58.09c9.5-0.84,17.04-0.28,29.33,2.51l-6.98,29.32
		c-1.96,0-3.35-0.28-4.47-0.28c-11.73-0.84-20.39,2.79-25.42,10.06c-3.07,4.47-4.47,8.94-6.98,23.46h28.77L818.48,280.57z"/>
	<path class="st1" d="M924.32,248.72l-30.54,72.07l-15.81-72.07h-43l29.2,122.34c-5.03,10.33-7.26,14.52-11.17,20.39
		c-8.66,13.13-20.11,20.11-32.68,20.11c-4.19,0-6.98-0.28-12.85-1.4l4.75,31.28c2.79,0.56,4.75,0.84,6.14,0.84
		c27.37,2.79,46.36-6.7,67.03-33.52c9.22-12.01,15.36-22.62,31.28-54.18l53.88-105.86H924.32z"/>
	<g>
		<path class="st2" d="M880.53,216.03l4.05-26.55h11.22l-7.03,45.93l-7.52,1.56l-19.03-26.91l-3.98,25.98h-11.22l7.03-45.72
			l7.31-1.56L880.53,216.03z"/>
		<path class="st2" d="M913.4,209.57h13.35l-1.42,9.44h-13.35l-2.56,17.04h-11.86l6.96-46.57h26.98l-1.42,9.87h-15.19L913.4,209.57z
			"/>
		<path class="st2" d="M954.16,236.06H942.3l5.47-36.7h-12.49l1.49-9.87h36.85l-1.49,9.87h-12.42L954.16,236.06z"/>
	</g>
	<g>
		<path class="st1" d="M299.16,435.15h-17.64l-3.87,7.79h-2.39l13.99-27.67h2.22l13.99,27.67h-2.39L299.16,435.15z M298.34,433.45
			l-7.99-15.97l-7.95,15.97H298.34z"/>
		<path class="st1" d="M313.43,440.1c-2.13-2.03-3.19-4.99-3.19-8.89v-15.93h2.22v15.85c0,3.4,0.85,5.94,2.56,7.63
			c1.71,1.69,4.18,2.53,7.43,2.53c3.21,0,5.68-0.84,7.38-2.53c1.71-1.69,2.56-4.23,2.56-7.63v-15.85h2.22v15.93
			c0,3.9-1.07,6.86-3.21,8.89c-2.14,2.03-5.14,3.04-8.99,3.04C318.55,443.14,315.56,442.12,313.43,440.1z"/>
		<path class="st1" d="M349.92,441.32c-2.39-1.21-4.27-2.89-5.65-5.02c-1.38-2.13-2.06-4.53-2.06-7.19s0.69-5.06,2.06-7.19
			c1.38-2.13,3.26-3.81,5.65-5.02c2.39-1.21,5.08-1.82,8.06-1.82c2.2,0,4.23,0.32,6.08,0.97c1.85,0.65,3.43,1.6,4.73,2.87l-1.39,1.3
			c-2.43-2.19-5.55-3.28-9.34-3.28c-2.55,0-4.87,0.53-6.95,1.58c-2.09,1.05-3.72,2.51-4.91,4.37c-1.19,1.86-1.78,3.93-1.78,6.23
			c0,2.29,0.59,4.37,1.78,6.23c1.19,1.86,2.82,3.31,4.91,4.37c2.08,1.05,4.4,1.58,6.95,1.58c3.76,0,6.88-1.11,9.34-3.32l1.39,1.3
			c-1.3,1.27-2.89,2.23-4.76,2.89c-1.87,0.66-3.89,0.99-6.06,0.99C355,443.14,352.31,442.53,349.92,441.32z"/>
		<path class="st1" d="M381.82,417.09h-10.95v-1.82h24.11v1.82h-10.95v25.85h-2.22V417.09z"/>
		<path class="st1" d="M400.63,415.27h2.22v27.67h-2.22V415.27z"/>
		<path class="st1" d="M418.44,441.3c-2.4-1.23-4.29-2.91-5.67-5.04c-1.38-2.14-2.06-4.52-2.06-7.15s0.69-5.02,2.06-7.15
			c1.38-2.14,3.26-3.81,5.67-5.04c2.4-1.23,5.1-1.84,8.08-1.84c2.98,0,5.68,0.61,8.08,1.82c2.4,1.21,4.29,2.89,5.67,5.02
			c1.38,2.14,2.06,4.53,2.06,7.19s-0.69,5.06-2.06,7.19c-1.38,2.14-3.27,3.81-5.67,5.02c-2.4,1.21-5.1,1.82-8.08,1.82
			C423.54,443.14,420.85,442.53,418.44,441.3z M433.43,439.7c2.06-1.05,3.68-2.51,4.87-4.37c1.19-1.86,1.78-3.93,1.78-6.23
			c0-2.29-0.59-4.37-1.78-6.23c-1.19-1.86-2.81-3.31-4.87-4.37c-2.06-1.05-4.36-1.58-6.91-1.58c-2.55,0-4.86,0.53-6.93,1.58
			c-2.07,1.05-3.7,2.51-4.89,4.37c-1.19,1.86-1.78,3.93-1.78,6.23c0,2.29,0.59,4.37,1.78,6.23c1.19,1.86,2.82,3.31,4.89,4.37
			c2.07,1.05,4.38,1.58,6.93,1.58C429.07,441.28,431.37,440.75,433.43,439.7z"/>
		<path class="st1" d="M474.96,415.27v27.67h-1.82l-20.72-24.03v24.03h-2.22v-27.67h1.87l20.68,24.03v-24.03H474.96z"/>
		<path class="st1" d="M525.82,442.94l-0.04-23.68l-12.73,20h-1.09l-12.73-19.92v23.6h-2.17v-27.67h1.87l13.6,21.38l13.6-21.38h1.83
			l0.04,27.67H525.82z"/>
		<path class="st1" d="M557.57,435.15h-17.64l-3.87,7.79h-2.39l13.99-27.67h2.22l13.99,27.67h-2.39L557.57,435.15z M556.75,433.45
			l-7.99-15.97l-7.95,15.97H556.75z"/>
		<path class="st1" d="M590.67,442.94l-7.25-9.25c-1.07,0.13-2.06,0.2-2.95,0.2h-8.69v9.05h-2.22v-27.67h10.9
			c3.82,0,6.82,0.82,8.99,2.47c2.17,1.65,3.26,3.93,3.26,6.86c0,2.19-0.62,4.03-1.85,5.51c-1.23,1.49-2.99,2.54-5.28,3.14l7.6,9.68
			H590.67z M580.47,432.11c3.24,0,5.72-0.65,7.43-1.96c1.71-1.3,2.56-3.16,2.56-5.55c0-2.4-0.85-4.25-2.56-5.55
			c-1.71-1.3-4.19-1.96-7.43-1.96h-8.69v15.02H580.47z"/>
		<path class="st1" d="M610.05,429.3l-6.82,6.36v7.27h-2.22v-27.67h2.22v17.79l18.98-17.79h2.69l-13.38,12.57l14.29,15.1h-2.69
			L610.05,429.3z"/>
		<path class="st1" d="M652.7,441.12v1.82h-20.98v-27.67h20.33v1.82h-18.11V428h16.2v1.78h-16.2v11.34H652.7z"/>
		<path class="st1" d="M666.78,417.09h-10.95v-1.82h24.11v1.82h-10.95v25.85h-2.22V417.09z"/>
	</g>
	<g>
		<g>
			<path class="st0" d="M64.28,236.54c1.08,6.41,7.21,10.77,13.62,9.69l65.71-11.08c6.41-1.08,10.77-7.21,9.69-13.62l-0.48-2.82
				c-1.08-6.41-7.21-10.77-13.62-9.69L73.49,220.1c-6.41,1.08-10.77,7.21-9.69,13.62L64.28,236.54z"/>
			<path class="st0" d="M91.42,284.04c4.18,24.8-2.89,34.19-2.89,34.19l65.99-11.13c0,0-7.55-9.66-10.99-30.03
				c-3.44-20.37,0.01-35.07,0.01-35.07l-65.99,11.13C77.55,253.12,87.24,259.23,91.42,284.04z"/>
			<path class="st0" d="M81.43,338.25l0.48,2.82c1.08,6.41,7.21,10.77,13.62,9.69l65.71-11.08c6.41-1.08,10.77-7.21,9.69-13.62
				l-0.48-2.82c-1.08-6.41-7.21-10.77-13.62-9.69l-65.71,11.08C84.71,325.71,80.35,331.84,81.43,338.25z"/>
			<path class="st0" d="M83.86,293.26l-2.14-12.72c-1.21-7.19-8.08-12.07-15.27-10.86l-40.06,4.89v41.83L73,308.53
				C80.19,307.31,85.08,300.44,83.86,293.26z"/>
		</g>
		<g>
			<path class="st2" d="M185.42,271.33c17.14-9.6,31.53-24.68,31.53-51.75v-0.69c0-37.7-30.16-62.03-79.17-62.03H26.39v117.71
				l40.06-4.89c7.19-1.21,14.06,3.68,15.27,10.86l2.14,12.72c1.21,7.19-3.68,14.06-10.86,15.27l-46.61,7.87v80.38h114.13
				c54.15,0,89.8-21.94,89.8-65.8v-0.69C230.31,298.07,213.18,281.96,185.42,271.33z M64.28,236.54l-0.48-2.82
				c-1.08-6.41,3.28-12.54,9.69-13.62l65.71-11.08c6.41-1.08,12.54,3.28,13.62,9.69l0.48,2.82c1.08,6.41-3.28,12.54-9.69,13.62
				L77.9,246.23C71.49,247.31,65.36,242.95,64.28,236.54z M77.55,253.12l65.99-11.13c0,0-3.44,14.7-0.01,35.07
				s10.99,30.03,10.99,30.03l-65.99,11.13c0,0,7.07-9.39,2.89-34.19C87.24,259.23,77.55,253.12,77.55,253.12z M161.24,339.67
				l-65.71,11.08c-6.41,1.08-12.54-3.28-13.62-9.69l-0.48-2.82c-1.08-6.41,3.28-12.54,9.69-13.62l65.71-11.08
				c6.41-1.08,12.54,3.28,13.62,9.69l0.48,2.82C172.01,332.46,167.65,338.59,161.24,339.67z"/>
		</g>
	</g>
</g>
</svg>
