<svg width="400" height="400" viewBox="0 0 400 400" fill="none" xmlns="http://www.w3.org/2000/svg">
<rect width="400" height="400" rx="20" fill="#F79420"/>
<path d="M271.184 344.558V325.844C271.184 320.822 267.074 316.712 262.052 316.712H137.198C132.176 316.712 128.066 320.822 128.066 325.844V344.558H271.184Z" fill="#231F20"/>
<path d="M132.727 138.538C133.859 145.258 140.287 149.829 147.007 148.697L215.903 137.081C222.624 135.948 227.195 129.521 226.063 122.801L225.56 119.845C224.427 113.124 218 108.553 211.279 109.685L142.384 121.302C135.663 122.434 131.091 128.861 132.224 135.581L132.727 138.538Z" fill="white"/>
<path d="M161.183 188.338C165.565 214.338 158.153 224.183 158.153 224.183L227.342 212.514C227.342 212.514 219.426 202.386 215.819 181.03C212.213 159.674 215.83 144.262 215.83 144.262L146.64 155.931C146.64 155.921 156.8 162.326 161.183 188.338Z" fill="white"/>
<path d="M150.709 245.172L151.212 248.129C152.344 254.849 158.771 259.42 165.492 258.288L234.388 246.672C241.109 245.539 245.68 239.113 244.548 232.392L244.044 229.436C242.912 222.715 236.485 218.144 229.764 219.276L160.868 230.893C154.148 232.025 149.576 238.452 150.709 245.172Z" fill="white"/>
<path d="M153.256 198.004L151.013 184.668C149.744 177.13 142.541 172.014 135.002 173.282L93 178.409V222.265L141.87 214.013C149.408 212.734 154.535 205.532 153.256 198.004Z" fill="white"/>
<path d="M259.74 175.012C277.711 164.947 292.799 149.137 292.799 120.757V120.033C292.799 80.508 261.177 55 209.791 55H93V178.409L135.002 173.282C142.541 172.014 149.744 177.141 151.013 184.668L153.256 198.004C154.525 205.542 149.398 212.745 141.87 214.013L93 222.264V306.536H212.663C269.439 306.536 306.817 283.534 306.817 237.55V236.827C306.807 203.047 288.846 186.157 259.74 175.012ZM132.727 138.538L132.224 135.581C131.091 128.861 135.663 122.434 142.384 121.302L211.279 109.685C218 108.553 224.427 113.124 225.56 119.845L226.063 122.801C227.195 129.521 222.624 135.948 215.903 137.081L147.007 148.697C140.287 149.829 133.859 145.258 132.727 138.538ZM146.64 155.921L215.83 144.252C215.83 144.252 212.223 159.663 215.819 181.02C219.416 202.376 227.342 212.504 227.342 212.504L158.153 224.173C158.153 224.173 165.566 214.328 161.183 188.327C156.8 162.326 146.64 155.921 146.64 155.921ZM234.388 246.661L165.492 258.278C158.771 259.41 152.344 254.839 151.212 248.118L150.709 245.162C149.576 238.442 154.148 232.015 160.868 230.882L229.764 219.266C236.485 218.134 242.912 222.705 244.044 229.425L244.548 232.382C245.68 239.102 241.109 245.529 234.388 246.661Z" fill="#231F20"/>
</svg>
