<svg width="26" height="26" viewBox="0 0 26 26" fill="none" xmlns="http://www.w3.org/2000/svg">
<path fill-rule="evenodd" clip-rule="evenodd" d="M26 13C26 20.1797 20.1797 26 13 26C5.8203 26 0 20.1797 0 13C0 5.8203 5.8203 0 13 0C20.1797 0 26 5.8203 26 13ZM20.5833 13C20.5833 17.1882 17.1882 20.5833 13 20.5833C8.81184 20.5833 5.41667 17.1882 5.41667 13C5.41667 8.81184 8.81184 5.41667 13 5.41667C17.1882 5.41667 20.5833 8.81184 20.5833 13ZM11.6458 10.5625C11.0475 10.5625 10.5625 11.0475 10.5625 11.6458V14.3542C10.5625 14.9525 11.0475 15.4375 11.6458 15.4375H14.3542C14.9525 15.4375 15.4375 14.9525 15.4375 14.3542V11.6458C15.4375 11.0475 14.9525 10.5625 14.3542 10.5625H11.6458Z" fill="#2D65F8"/>
</svg>
