<svg width="26" height="26" viewBox="0 0 26 26" fill="none" xmlns="http://www.w3.org/2000/svg">
<path d="M22.3685 2.89709L14.2486 8.92785L15.7502 5.36979L22.3685 2.89709Z" fill="#E2761B" stroke="#E2761B" stroke-linecap="round" stroke-linejoin="round"/>
<path d="M3.62343 2.89709L11.678 8.98498L10.2499 5.36979L3.62343 2.89709Z" fill="#E4761B" stroke="#E4761B" stroke-linecap="round" stroke-linejoin="round"/>
<path d="M19.4471 16.8763L17.2845 20.1896L21.9117 21.4627L23.2419 16.9498L19.4471 16.8763Z" fill="#E4761B" stroke="#E4761B" stroke-linecap="round" stroke-linejoin="round"/>
<path d="M2.7666 16.9498L4.08864 21.4627L8.71575 20.1896L6.55317 16.8763L2.7666 16.9498Z" fill="#E4761B" stroke="#E4761B" stroke-linecap="round" stroke-linejoin="round"/>
<path d="M8.4547 11.2782L7.16531 13.2286L11.7598 13.4326L11.5966 8.49536L8.4547 11.2782Z" fill="#E4761B" stroke="#E4761B" stroke-linecap="round" stroke-linejoin="round"/>
<path d="M17.5374 11.2782L14.3547 8.43823L14.2486 13.4326L18.8349 13.2286L17.5374 11.2782Z" fill="#E4761B" stroke="#E4761B" stroke-linecap="round" stroke-linejoin="round"/>
<path d="M8.71582 20.1896L11.4741 18.8431L9.09121 16.9824L8.71582 20.1896Z" fill="#E4761B" stroke="#E4761B" stroke-linecap="round" stroke-linejoin="round"/>
<path d="M14.5179 18.8431L17.2844 20.1896L16.9008 16.9824L14.5179 18.8431Z" fill="#E4761B" stroke="#E4761B" stroke-linecap="round" stroke-linejoin="round"/>
<path d="M17.2844 20.1895L14.5179 18.843L14.7383 20.6465L14.7138 21.4055L17.2844 20.1895Z" fill="#D7C1B3" stroke="#D7C1B3" stroke-linecap="round" stroke-linejoin="round"/>
<path d="M8.71582 20.1895L11.2864 21.4055L11.2701 20.6465L11.4741 18.843L8.71582 20.1895Z" fill="#D7C1B3" stroke="#D7C1B3" stroke-linecap="round" stroke-linejoin="round"/>
<path d="M11.3269 15.7909L9.0256 15.1136L10.6496 14.371L11.3269 15.7909Z" fill="#233447" stroke="#233447" stroke-linecap="round" stroke-linejoin="round"/>
<path d="M14.6646 15.7909L15.3419 14.371L16.9741 15.1136L14.6646 15.7909Z" fill="#233447" stroke="#233447" stroke-linecap="round" stroke-linejoin="round"/>
<path d="M8.71579 20.1896L9.1075 16.8763L6.55321 16.9498L8.71579 20.1896Z" fill="#CD6116" stroke="#CD6116" stroke-linecap="round" stroke-linejoin="round"/>
<path d="M16.8928 16.8763L17.2845 20.1896L19.4471 16.9498L16.8928 16.8763Z" fill="#CD6116" stroke="#CD6116" stroke-linecap="round" stroke-linejoin="round"/>
<path d="M18.8351 13.2285L14.2488 13.4325L14.6732 15.791L15.3505 14.371L16.9827 15.1136L18.8351 13.2285Z" fill="#CD6116" stroke="#CD6116" stroke-linecap="round" stroke-linejoin="round"/>
<path d="M9.02595 15.1136L10.6581 14.371L11.3273 15.791L11.7598 13.4325L7.16531 13.2285L9.02595 15.1136Z" fill="#CD6116" stroke="#CD6116" stroke-linecap="round" stroke-linejoin="round"/>
<path d="M7.16533 13.2285L9.09125 16.9824L9.02597 15.1136L7.16533 13.2285Z" fill="#E4751F" stroke="#E4751F" stroke-linecap="round" stroke-linejoin="round"/>
<path d="M16.9827 15.1136L16.9011 16.9824L18.8352 13.2285L16.9827 15.1136Z" fill="#E4751F" stroke="#E4751F" stroke-linecap="round" stroke-linejoin="round"/>
<path d="M11.7597 13.4325L11.3272 15.7909L11.8658 18.5737L11.9882 14.9096L11.7597 13.4325Z" fill="#E4751F" stroke="#E4751F" stroke-linecap="round" stroke-linejoin="round"/>
<path d="M14.2489 13.4325L14.0285 14.9014L14.1265 18.5737L14.6732 15.7909L14.2489 13.4325Z" fill="#E4751F" stroke="#E4751F" stroke-linecap="round" stroke-linejoin="round"/>
<path d="M14.6729 15.791L14.1261 18.5738L14.5178 18.8431L16.9008 16.9825L16.9824 15.1136L14.6729 15.791Z" fill="#F6851B" stroke="#F6851B" stroke-linecap="round" stroke-linejoin="round"/>
<path d="M9.0256 15.1136L9.09089 16.9825L11.4738 18.8431L11.8655 18.5738L11.3269 15.791L9.0256 15.1136Z" fill="#F6851B" stroke="#F6851B" stroke-linecap="round" stroke-linejoin="round"/>
<path d="M14.7139 21.4055L14.7384 20.6466L14.5344 20.467H11.4578L11.2701 20.6466L11.2864 21.4055L8.71582 20.1896L9.6135 20.924L11.4333 22.189H14.5589L16.3869 20.924L17.2846 20.1896L14.7139 21.4055Z" fill="#C0AD9E" stroke="#C0AD9E" stroke-linecap="round" stroke-linejoin="round"/>
<path d="M14.5178 18.843L14.126 18.5737H11.8655L11.4738 18.843L11.2698 20.6465L11.4575 20.467H14.5341L14.7381 20.6465L14.5178 18.843Z" fill="#161616" stroke="#161616" stroke-linecap="round" stroke-linejoin="round"/>
<path d="M22.7113 9.31957L23.4049 5.99L22.3685 2.89709L14.518 8.72384L17.5374 11.2781L21.8055 12.5267L22.7521 11.425L22.3441 11.1312L22.9969 10.5355L22.491 10.1438L23.1438 9.646L22.7113 9.31957Z" fill="#763D16" stroke="#763D16" stroke-linecap="round" stroke-linejoin="round"/>
<path d="M2.59511 5.99L3.28877 9.31957L2.84809 9.646L3.50095 10.1438L3.00314 10.5355L3.656 11.1312L3.24796 11.425L4.18645 12.5267L8.45449 11.2781L11.474 8.72384L3.62336 2.89709L2.59511 5.99Z" fill="#763D16" stroke="#763D16" stroke-linecap="round" stroke-linejoin="round"/>
<path d="M21.8054 12.5267L17.5374 11.2781L18.8349 13.2285L16.9009 16.9824L19.447 16.9498H23.2417L21.8054 12.5267Z" fill="#F6851B" stroke="#F6851B" stroke-linecap="round" stroke-linejoin="round"/>
<path d="M8.45461 11.2781L4.18656 12.5267L2.7666 16.9498H6.55317L9.09115 16.9824L7.16522 13.2285L8.45461 11.2781Z" fill="#F6851B" stroke="#F6851B" stroke-linecap="round" stroke-linejoin="round"/>
<path d="M14.2486 13.4325L14.5179 8.7238L15.7583 5.36975H10.2498L11.474 8.7238L11.7596 13.4325L11.8575 14.9178L11.8657 18.5738H14.1262L14.1425 14.9178L14.2486 13.4325Z" fill="#F6851B" stroke="#F6851B" stroke-linecap="round" stroke-linejoin="round"/>
</svg>
