<svg width="26" height="26" viewBox="0 0 26 26" fill="none" xmlns="http://www.w3.org/2000/svg">
<path d="M5.32486 8.10626C9.56383 3.96458 16.4366 3.96458 20.6755 8.10626L21.1857 8.60472C21.3977 8.8118 21.3977 9.14755 21.1857 9.35463L19.4405 11.0598C19.3346 11.1633 19.1627 11.1633 19.0568 11.0598L18.3547 10.3738C15.3975 7.48448 10.6029 7.48448 7.64569 10.3738L6.89385 11.1084C6.78788 11.2119 6.61606 11.2119 6.51009 11.1084L4.76491 9.40328C4.55296 9.1962 4.55296 8.86045 4.76491 8.65336L5.32486 8.10626ZM24.2847 11.6326L25.838 13.1502C26.0499 13.3573 26.0499 13.693 25.838 13.9001L18.8344 20.743C18.6225 20.9501 18.2788 20.9501 18.0669 20.743C18.0669 20.743 18.0669 20.743 18.0669 20.743L13.0962 15.8864C13.0432 15.8347 12.9573 15.8347 12.9043 15.8864C12.9043 15.8864 12.9043 15.8864 12.9043 15.8864L7.93371 20.743C7.72176 20.9501 7.37812 20.9501 7.16617 20.743C7.16617 20.743 7.16617 20.743 7.16617 20.743L0.162425 13.9C-0.0495234 13.693 -0.0495234 13.3572 0.162425 13.1501L1.71564 11.6326C1.92759 11.4255 2.27123 11.4255 2.48318 11.6326L7.45394 16.4892C7.50693 16.541 7.59284 16.541 7.64582 16.4892C7.64582 16.4892 7.64582 16.4892 7.64583 16.4892L12.6163 11.6326C12.8283 11.4255 13.1719 11.4255 13.3839 11.6325C13.3839 11.6325 13.3839 11.6325 13.3839 11.6325L18.3546 16.4892C18.4076 16.541 18.4935 16.541 18.5465 16.4892L23.5172 11.6326C23.7292 11.4256 24.0728 11.4256 24.2847 11.6326Z" fill="#3B99FC"/>
</svg>
